<?xml version="1.0" encoding="iso-8859-1"?>
<!-- Uploaded to: SVG Repo, www.svgrepo.com, Generator: SVG Repo Mixer Tools -->
<!DOCTYPE svg PUBLIC "-//W3C//DTD SVG 1.1//EN" "http://www.w3.org/Graphics/SVG/1.1/DTD/svg11.dtd">
<svg fill="#000000" height="800px" width="800px" version="1.1" id="Capa_1" xmlns="http://www.w3.org/2000/svg" xmlns:xlink="http://www.w3.org/1999/xlink" 
	 viewBox="0 0 54 54" xml:space="preserve">
<g>
	<path d="M47.428,21.033c0-1.654-0.743-2.977-1.894-3.648V12h-5V9h-5V5h-5V0h-7v5h-5v4h-5v3h-5v5.344
		c-1.191,0.657-1.963,2.002-1.963,3.689v0.172c-0.001,0.324,0.015,0.647,0.018,0.971h6.495c1.975,0,3.827,0.953,4.956,2.551
		C19.846,27.283,24.129,29,26.997,29c2.87,0,7.157-1.717,8.962-4.273c1.128-1.597,2.981-2.551,4.956-2.551h6.499
		c0.001-0.333,0.017-0.664,0.014-0.997L47.428,21.033z M13.534,16.92c-0.151-0.013-0.301-0.019-0.45-0.019h-2.55V14h3V16.92z
		 M18.534,20.017c-0.166-0.155-0.313-0.322-0.446-0.503c-0.015-0.021-0.033-0.041-0.048-0.062c-0.639-0.904-1.513-1.592-2.506-2.027
		V12v-1h3V20.017z M23.534,22.743c-1.048-0.25-2.091-0.546-3-1.064V9V7h3V22.743z M28.534,5v18.582
		c-0.252,0.043-0.49,0.075-0.723,0.098c-0.027,0.003-0.055,0.006-0.082,0.008c-0.477,0.044-0.929,0.046-1.406,0.006
		c-0.021-0.002-0.042-0.004-0.062-0.006c-0.234-0.022-0.474-0.052-0.727-0.094V5V2h3V5z M33.534,9v12.636
		c-0.906,0.527-1.949,0.838-3,1.098V7h3V9z M38.534,12v5.395c-1.022,0.433-1.922,1.133-2.575,2.057
		c-0.017,0.023-0.037,0.045-0.054,0.069c-0.114,0.154-0.236,0.3-0.372,0.436V11h3V12z M43.534,16.901h-2.619
		c-0.126,0-0.253,0.004-0.381,0.013V14h3V16.901z"/>
	<path d="M39.328,50.612C36.451,50.049,31.097,49,27.034,49c-5.806,0-14.332,1.927-14.417,1.946l-0.853,0.196
		C12.43,52.758,14.228,54,15.969,54H38.03c1.943,0,3.625-1.192,4.304-2.94l-0.637-0.072C41.364,51.008,40.777,50.896,39.328,50.612z
		"/>
	<path d="M37.593,25.881C35.359,29.043,30.353,31,26.997,31c-3.354,0-8.356-1.957-10.591-5.119
		c-0.754-1.067-1.996-1.705-3.322-1.705H6.626c0.265,8.539,1.771,16.95,4.481,25.066l1.064-0.245C12.53,48.915,21.005,47,27.034,47
		c4.257,0,9.735,1.073,12.678,1.65c0.458,0.089,0.924,0.181,1.279,0.246l1.948,0.22c2.718-8.072,4.213-16.441,4.447-24.941h-6.471
		C39.589,24.176,38.347,24.813,37.593,25.881z M27.534,45c-4.411,0-8-2.691-8-6s3.589-6,8-6s8,2.691,8,6S31.945,45,27.534,45z"/>
</g>
</svg>